<svg xmlns="http://www.w3.org/2000/svg" xmlns:xlink="http://www.w3.org/1999/xlink" width="500" zoomAndPan="magnify" viewBox="0 0 375 374.999991" height="500" preserveAspectRatio="xMidYMid meet" version="1.0"><defs><g/></defs><g fill="#000000" fill-opacity="1"><g transform="translate(57.850745, 198.743526)"><g><path d="M 30.109375 -23.015625 C 32.566406 -20.335938 33.796875 -17.050781 33.796875 -13.15625 C 33.796875 -9.269531 32.566406 -5.976562 30.109375 -3.28125 C 27.648438 -0.582031 24.523438 0.765625 20.734375 0.765625 C 17.253906 0.765625 14.390625 -0.328125 12.140625 -2.515625 L 12.140625 13.3125 L 3.078125 13.3125 L 3.078125 -26.265625 L 12.03125 -26.265625 L 12.03125 -23.296875 L 12.140625 -23.296875 C 14.390625 -25.785156 17.253906 -27.03125 20.734375 -27.03125 C 24.523438 -27.03125 27.648438 -25.691406 30.109375 -23.015625 Z M 22.40625 -8.703125 C 23.582031 -9.867188 24.171875 -11.351562 24.171875 -13.15625 C 24.171875 -14.96875 23.601562 -16.441406 22.46875 -17.578125 C 21.34375 -18.722656 19.863281 -19.296875 18.03125 -19.296875 C 16.25 -19.296875 14.785156 -18.71875 13.640625 -17.5625 C 12.503906 -16.40625 11.9375 -14.9375 11.9375 -13.15625 C 11.9375 -11.351562 12.523438 -9.867188 13.703125 -8.703125 C 14.878906 -7.546875 16.320312 -6.96875 18.03125 -6.96875 C 19.769531 -6.96875 21.226562 -7.546875 22.40625 -8.703125 Z M 22.40625 -8.703125 "/></g></g></g><g fill="#000000" fill-opacity="1"><g transform="translate(88.005702, 198.743526)"><g><path d="M 3.078125 0 L 3.078125 -26.265625 L 12.140625 -26.265625 L 12.140625 -22.484375 L 12.234375 -22.484375 C 12.304688 -22.617188 12.414062 -22.785156 12.5625 -22.984375 C 12.71875 -23.191406 13.050781 -23.550781 13.5625 -24.0625 C 14.082031 -24.570312 14.628906 -25.03125 15.203125 -25.4375 C 15.785156 -25.851562 16.535156 -26.222656 17.453125 -26.546875 C 18.378906 -26.867188 19.320312 -27.03125 20.28125 -27.03125 C 21.269531 -27.03125 22.238281 -26.894531 23.1875 -26.625 C 24.144531 -26.351562 24.847656 -26.082031 25.296875 -25.8125 L 26.015625 -25.390625 L 22.21875 -17.71875 C 21.09375 -18.675781 19.523438 -19.15625 17.515625 -19.15625 C 16.421875 -19.15625 15.476562 -18.914062 14.6875 -18.4375 C 13.90625 -17.957031 13.351562 -17.375 13.03125 -16.6875 C 12.707031 -16.007812 12.476562 -15.429688 12.34375 -14.953125 C 12.207031 -14.472656 12.140625 -14.097656 12.140625 -13.828125 L 12.140625 0 Z M 3.078125 0 "/></g></g></g><g fill="#000000" fill-opacity="1"><g transform="translate(108.688797, 198.743526)"><g><path d="M 5.546875 -3.125 C 2.628906 -5.71875 1.171875 -9.046875 1.171875 -13.109375 C 1.171875 -17.171875 2.691406 -20.503906 5.734375 -23.109375 C 8.773438 -25.722656 12.53125 -27.03125 17 -27.03125 C 21.40625 -27.03125 25.117188 -25.71875 28.140625 -23.09375 C 31.160156 -20.46875 32.671875 -17.140625 32.671875 -13.109375 C 32.671875 -9.078125 31.191406 -5.753906 28.234375 -3.140625 C 25.285156 -0.535156 21.539062 0.765625 17 0.765625 C 12.289062 0.765625 8.472656 -0.53125 5.546875 -3.125 Z M 12.5625 -17.5625 C 11.382812 -16.40625 10.796875 -14.921875 10.796875 -13.109375 C 10.796875 -11.296875 11.359375 -9.816406 12.484375 -8.671875 C 13.617188 -7.535156 15.109375 -6.96875 16.953125 -6.96875 C 18.722656 -6.96875 20.179688 -7.546875 21.328125 -8.703125 C 22.472656 -9.867188 23.046875 -11.335938 23.046875 -13.109375 C 23.046875 -14.921875 22.457031 -16.40625 21.28125 -17.5625 C 20.101562 -18.71875 18.660156 -19.296875 16.953125 -19.296875 C 15.210938 -19.296875 13.75 -18.71875 12.5625 -17.5625 Z M 12.5625 -17.5625 "/></g></g></g><g fill="#000000" fill-opacity="1"><g transform="translate(137.717369, 198.743526)"><g><path d="M 4.859375 -3.25 C 2.398438 -5.925781 1.171875 -9.207031 1.171875 -13.09375 C 1.171875 -16.988281 2.398438 -20.285156 4.859375 -22.984375 C 7.316406 -25.679688 10.441406 -27.03125 14.234375 -27.03125 C 17.710938 -27.03125 20.582031 -25.941406 22.84375 -23.765625 L 22.84375 -44.03125 L 31.90625 -44.03125 L 31.90625 0 L 22.9375 0 L 22.9375 -2.96875 L 22.84375 -2.96875 C 20.582031 -0.476562 17.710938 0.765625 14.234375 0.765625 C 10.441406 0.765625 7.316406 -0.570312 4.859375 -3.25 Z M 12.5625 -17.5625 C 11.382812 -16.40625 10.796875 -14.921875 10.796875 -13.109375 C 10.796875 -11.296875 11.359375 -9.816406 12.484375 -8.671875 C 13.617188 -7.535156 15.109375 -6.96875 16.953125 -6.96875 C 18.722656 -6.96875 20.179688 -7.546875 21.328125 -8.703125 C 22.472656 -9.867188 23.046875 -11.335938 23.046875 -13.109375 C 23.046875 -14.921875 22.457031 -16.40625 21.28125 -17.5625 C 20.101562 -18.71875 18.660156 -19.296875 16.953125 -19.296875 C 15.210938 -19.296875 13.75 -18.71875 12.5625 -17.5625 Z M 12.5625 -17.5625 "/></g></g></g><g fill="#000000" fill-opacity="1"><g transform="translate(167.872326, 198.743526)"><g><path d="M 11.625 -26.265625 L 11.625 -13.78125 C 11.625 -11.175781 12.015625 -9.328125 12.796875 -8.234375 C 13.585938 -7.148438 14.921875 -6.609375 16.796875 -6.609375 C 18.671875 -6.609375 20 -7.148438 20.78125 -8.234375 C 21.570312 -9.328125 21.96875 -11.175781 21.96875 -13.78125 L 21.96875 -26.265625 L 31.03125 -26.265625 L 31.03125 -11.578125 C 31.03125 -7.203125 29.894531 -4.050781 27.625 -2.125 C 25.351562 -0.195312 21.742188 0.765625 16.796875 0.765625 C 11.847656 0.765625 8.238281 -0.195312 5.96875 -2.125 C 3.695312 -4.050781 2.5625 -7.203125 2.5625 -11.578125 L 2.5625 -26.265625 Z M 11.625 -26.265625 "/></g></g></g><g fill="#000000" fill-opacity="1"><g transform="translate(196.644911, 198.743526)"><g><path d="M 17.046875 -19.609375 C 15.335938 -19.609375 13.867188 -18.976562 12.640625 -17.71875 C 11.410156 -16.457031 10.796875 -14.9375 10.796875 -13.15625 C 10.796875 -11.351562 11.410156 -9.816406 12.640625 -8.546875 C 13.867188 -7.285156 15.335938 -6.65625 17.046875 -6.65625 C 17.867188 -6.65625 18.644531 -6.753906 19.375 -6.953125 C 20.113281 -7.160156 20.65625 -7.367188 21 -7.578125 L 21.453125 -7.890625 L 24.53125 -1.59375 C 24.289062 -1.414062 23.957031 -1.195312 23.53125 -0.9375 C 23.101562 -0.6875 22.128906 -0.34375 20.609375 0.09375 C 19.085938 0.539062 17.457031 0.765625 15.71875 0.765625 C 11.863281 0.765625 8.472656 -0.585938 5.546875 -3.296875 C 2.628906 -6.015625 1.171875 -9.269531 1.171875 -13.0625 C 1.171875 -16.882812 2.628906 -20.164062 5.546875 -22.90625 C 8.472656 -25.65625 11.863281 -27.03125 15.71875 -27.03125 C 17.457031 -27.03125 19.0625 -26.828125 20.53125 -26.421875 C 22 -26.015625 23.039062 -25.601562 23.65625 -25.1875 L 24.53125 -24.578125 L 21.453125 -18.375 C 20.328125 -19.195312 18.859375 -19.609375 17.046875 -19.609375 Z M 17.046875 -19.609375 "/></g></g></g><g fill="#000000" fill-opacity="1"><g transform="translate(216.969616, 198.743526)"><g><path d="M 4.609375 -26.265625 L 4.609375 -36.046875 L 13.671875 -36.046875 L 13.671875 -26.265625 L 19.203125 -26.265625 L 19.203125 -19.359375 L 13.671875 -19.359375 L 13.671875 -11.015625 C 13.671875 -8.585938 14.351562 -7.375 15.71875 -7.375 C 16.0625 -7.375 16.421875 -7.441406 16.796875 -7.578125 C 17.171875 -7.710938 17.460938 -7.847656 17.671875 -7.984375 L 17.96875 -8.1875 L 20.21875 -0.875 C 18.28125 0.21875 16.0625 0.765625 13.5625 0.765625 C 11.863281 0.765625 10.398438 0.46875 9.171875 -0.125 C 7.941406 -0.726562 7.007812 -1.53125 6.375 -2.53125 C 5.738281 -3.539062 5.285156 -4.597656 5.015625 -5.703125 C 4.742188 -6.816406 4.609375 -8.003906 4.609375 -9.265625 L 4.609375 -19.359375 L 0.8125 -19.359375 L 0.8125 -26.265625 Z M 4.609375 -26.265625 "/></g></g></g><g fill="#000000" fill-opacity="1"><g transform="translate(232.379176, 198.743526)"><g/></g></g><g fill="#000000" fill-opacity="1"><g transform="translate(241.542437, 198.743526)"><g><path d="M 4.609375 -26.265625 L 4.609375 -31.84375 C 4.640625 -35.769531 5.5625 -38.910156 7.375 -41.265625 C 9.1875 -43.617188 11.695312 -44.796875 14.90625 -44.796875 C 16.269531 -44.796875 17.570312 -44.597656 18.8125 -44.203125 C 20.0625 -43.816406 20.957031 -43.421875 21.5 -43.015625 L 22.375 -42.453125 L 19.203125 -36.046875 C 18.378906 -36.523438 17.472656 -36.765625 16.484375 -36.765625 C 15.359375 -36.765625 14.609375 -36.378906 14.234375 -35.609375 C 13.859375 -34.835938 13.671875 -33.5 13.671875 -31.59375 L 13.671875 -26.265625 L 19.71875 -26.265625 L 19.71875 -19.359375 L 13.671875 -19.359375 L 13.671875 0 L 4.609375 0 L 4.609375 -19.359375 L 0.8125 -19.359375 L 0.8125 -26.265625 Z M 4.609375 -26.265625 "/></g></g></g><g fill="#000000" fill-opacity="1"><g transform="translate(255.928026, 198.743526)"><g><path d="M 29.640625 -11.875 L 10.59375 -11.875 C 10.59375 -10.03125 11.191406 -8.664062 12.390625 -7.78125 C 13.585938 -6.894531 14.882812 -6.453125 16.28125 -6.453125 C 17.75 -6.453125 18.910156 -6.644531 19.765625 -7.03125 C 20.617188 -7.425781 21.59375 -8.207031 22.6875 -9.375 L 29.234375 -6.09375 C 26.503906 -1.519531 21.960938 0.765625 15.609375 0.765625 C 11.648438 0.765625 8.253906 -0.585938 5.421875 -3.296875 C 2.585938 -6.015625 1.171875 -9.285156 1.171875 -13.109375 C 1.171875 -16.929688 2.585938 -20.207031 5.421875 -22.9375 C 8.253906 -25.664062 11.648438 -27.03125 15.609375 -27.03125 C 19.773438 -27.03125 23.164062 -25.828125 25.78125 -23.421875 C 28.394531 -21.015625 29.703125 -17.578125 29.703125 -13.109375 C 29.703125 -12.492188 29.679688 -12.082031 29.640625 -11.875 Z M 10.859375 -16.890625 L 20.84375 -16.890625 C 20.632812 -18.253906 20.09375 -19.300781 19.21875 -20.03125 C 18.351562 -20.769531 17.238281 -21.140625 15.875 -21.140625 C 14.375 -21.140625 13.175781 -20.75 12.28125 -19.96875 C 11.394531 -19.1875 10.921875 -18.160156 10.859375 -16.890625 Z M 10.859375 -16.890625 "/></g></g></g><g fill="#000000" fill-opacity="1"><g transform="translate(281.987045, 198.743526)"><g><path d="M 29.640625 -11.875 L 10.59375 -11.875 C 10.59375 -10.03125 11.191406 -8.664062 12.390625 -7.78125 C 13.585938 -6.894531 14.882812 -6.453125 16.28125 -6.453125 C 17.75 -6.453125 18.910156 -6.644531 19.765625 -7.03125 C 20.617188 -7.425781 21.59375 -8.207031 22.6875 -9.375 L 29.234375 -6.09375 C 26.503906 -1.519531 21.960938 0.765625 15.609375 0.765625 C 11.648438 0.765625 8.253906 -0.585938 5.421875 -3.296875 C 2.585938 -6.015625 1.171875 -9.285156 1.171875 -13.109375 C 1.171875 -16.929688 2.585938 -20.207031 5.421875 -22.9375 C 8.253906 -25.664062 11.648438 -27.03125 15.609375 -27.03125 C 19.773438 -27.03125 23.164062 -25.828125 25.78125 -23.421875 C 28.394531 -21.015625 29.703125 -17.578125 29.703125 -13.109375 C 29.703125 -12.492188 29.679688 -12.082031 29.640625 -11.875 Z M 10.859375 -16.890625 L 20.84375 -16.890625 C 20.632812 -18.253906 20.09375 -19.300781 19.21875 -20.03125 C 18.351562 -20.769531 17.238281 -21.140625 15.875 -21.140625 C 14.375 -21.140625 13.175781 -20.75 12.28125 -19.96875 C 11.394531 -19.1875 10.921875 -18.160156 10.859375 -16.890625 Z M 10.859375 -16.890625 "/></g></g></g><g fill="#000000" fill-opacity="1"><g transform="translate(150.037979, 212.619406)"><g><path d="M 3.4375 -5.5 C 3.90625 -5.5 4.328125 -5.378906 4.703125 -5.140625 C 5.085938 -4.898438 5.390625 -4.566406 5.609375 -4.140625 C 5.828125 -3.710938 5.9375 -3.234375 5.9375 -2.703125 C 5.9375 -2.160156 5.828125 -1.675781 5.609375 -1.25 C 5.390625 -0.832031 5.085938 -0.503906 4.703125 -0.265625 C 4.328125 -0.0234375 3.914062 0.09375 3.46875 0.09375 C 3.101562 0.09375 2.765625 0.015625 2.453125 -0.140625 C 2.148438 -0.296875 1.90625 -0.488281 1.71875 -0.71875 L 1.71875 1.5625 C 1.71875 1.707031 1.671875 1.828125 1.578125 1.921875 C 1.484375 2.015625 1.363281 2.0625 1.21875 2.0625 C 1.082031 2.0625 0.96875 2.015625 0.875 1.921875 C 0.78125 1.828125 0.734375 1.707031 0.734375 1.5625 L 0.734375 -4.921875 C 0.734375 -5.066406 0.773438 -5.1875 0.859375 -5.28125 C 0.953125 -5.375 1.070312 -5.421875 1.21875 -5.421875 C 1.363281 -5.421875 1.484375 -5.375 1.578125 -5.28125 C 1.671875 -5.1875 1.71875 -5.066406 1.71875 -4.921875 L 1.71875 -4.625 C 1.875 -4.863281 2.109375 -5.066406 2.421875 -5.234375 C 2.742188 -5.410156 3.082031 -5.5 3.4375 -5.5 Z M 3.328125 -0.8125 C 3.648438 -0.8125 3.9375 -0.894531 4.1875 -1.0625 C 4.4375 -1.226562 4.628906 -1.453125 4.765625 -1.734375 C 4.910156 -2.023438 4.984375 -2.347656 4.984375 -2.703125 C 4.984375 -3.054688 4.910156 -3.375 4.765625 -3.65625 C 4.628906 -3.945312 4.4375 -4.175781 4.1875 -4.34375 C 3.9375 -4.507812 3.648438 -4.59375 3.328125 -4.59375 C 3.003906 -4.59375 2.710938 -4.507812 2.453125 -4.34375 C 2.203125 -4.1875 2.003906 -3.960938 1.859375 -3.671875 C 1.722656 -3.378906 1.65625 -3.054688 1.65625 -2.703125 C 1.65625 -2.347656 1.722656 -2.023438 1.859375 -1.734375 C 2.003906 -1.441406 2.203125 -1.210938 2.453125 -1.046875 C 2.710938 -0.890625 3.003906 -0.8125 3.328125 -0.8125 Z M 3.328125 -0.8125 "/></g></g></g><g fill="#000000" fill-opacity="1"><g transform="translate(163.082875, 212.619406)"><g><path d="M 3.421875 -5.53125 C 3.597656 -5.53125 3.75 -5.484375 3.875 -5.390625 C 4.007812 -5.296875 4.078125 -5.179688 4.078125 -5.046875 C 4.078125 -4.878906 4.035156 -4.75 3.953125 -4.65625 C 3.867188 -4.570312 3.765625 -4.53125 3.640625 -4.53125 C 3.578125 -4.53125 3.484375 -4.550781 3.359375 -4.59375 C 3.210938 -4.644531 3.097656 -4.671875 3.015625 -4.671875 C 2.804688 -4.671875 2.597656 -4.597656 2.390625 -4.453125 C 2.191406 -4.304688 2.03125 -4.101562 1.90625 -3.84375 C 1.78125 -3.582031 1.71875 -3.296875 1.71875 -2.984375 L 1.71875 -0.5 C 1.71875 -0.351562 1.671875 -0.234375 1.578125 -0.140625 C 1.484375 -0.046875 1.363281 0 1.21875 0 C 1.070312 0 0.953125 -0.046875 0.859375 -0.140625 C 0.773438 -0.234375 0.734375 -0.351562 0.734375 -0.5 L 0.734375 -4.90625 C 0.734375 -5.039062 0.78125 -5.15625 0.875 -5.25 C 0.96875 -5.351562 1.082031 -5.40625 1.21875 -5.40625 C 1.363281 -5.40625 1.484375 -5.351562 1.578125 -5.25 C 1.671875 -5.15625 1.71875 -5.039062 1.71875 -4.90625 L 1.71875 -4.390625 C 1.863281 -4.722656 2.085938 -4.992188 2.390625 -5.203125 C 2.691406 -5.410156 3.035156 -5.519531 3.421875 -5.53125 Z M 3.421875 -5.53125 "/></g></g></g><g fill="#000000" fill-opacity="1"><g transform="translate(174.057318, 212.619406)"><g><path d="M 5.84375 -2.703125 C 5.84375 -2.160156 5.722656 -1.675781 5.484375 -1.25 C 5.242188 -0.832031 4.914062 -0.5 4.5 -0.25 C 4.082031 -0.0078125 3.625 0.109375 3.125 0.109375 C 2.625 0.109375 2.164062 -0.0078125 1.75 -0.25 C 1.332031 -0.5 1.003906 -0.832031 0.765625 -1.25 C 0.523438 -1.675781 0.40625 -2.160156 0.40625 -2.703125 C 0.40625 -3.234375 0.523438 -3.71875 0.765625 -4.15625 C 1.003906 -4.59375 1.332031 -4.929688 1.75 -5.171875 C 2.164062 -5.410156 2.625 -5.53125 3.125 -5.53125 C 3.625 -5.53125 4.082031 -5.410156 4.5 -5.171875 C 4.914062 -4.929688 5.242188 -4.59375 5.484375 -4.15625 C 5.722656 -3.71875 5.84375 -3.234375 5.84375 -2.703125 Z M 4.875 -2.703125 C 4.875 -3.078125 4.796875 -3.410156 4.640625 -3.703125 C 4.484375 -3.992188 4.269531 -4.21875 4 -4.375 C 3.738281 -4.539062 3.445312 -4.625 3.125 -4.625 C 2.800781 -4.625 2.503906 -4.539062 2.234375 -4.375 C 1.972656 -4.21875 1.765625 -3.992188 1.609375 -3.703125 C 1.453125 -3.410156 1.375 -3.078125 1.375 -2.703125 C 1.375 -2.335938 1.453125 -2.007812 1.609375 -1.71875 C 1.765625 -1.4375 1.972656 -1.210938 2.234375 -1.046875 C 2.503906 -0.878906 2.800781 -0.796875 3.125 -0.796875 C 3.445312 -0.796875 3.738281 -0.878906 4 -1.046875 C 4.269531 -1.210938 4.484375 -1.4375 4.640625 -1.71875 C 4.796875 -2.007812 4.875 -2.335938 4.875 -2.703125 Z M 4.875 -2.703125 "/></g></g></g><g fill="#000000" fill-opacity="1"><g transform="translate(187.019805, 212.619406)"><g><path d="M 0.25 2.03125 C 0.113281 2.03125 0.00390625 1.984375 -0.078125 1.890625 C -0.160156 1.804688 -0.203125 1.703125 -0.203125 1.578125 L -0.203125 1.484375 C -0.203125 1.253906 -0.0625 1.109375 0.21875 1.046875 C 0.65625 0.921875 0.875 0.578125 0.875 0.015625 L 0.875 -4.90625 C 0.875 -5.039062 0.921875 -5.15625 1.015625 -5.25 C 1.109375 -5.351562 1.226562 -5.40625 1.375 -5.40625 C 1.507812 -5.40625 1.625 -5.351562 1.71875 -5.25 C 1.8125 -5.15625 1.859375 -5.039062 1.859375 -4.90625 L 1.859375 0.265625 C 1.859375 0.617188 1.78125 0.925781 1.625 1.1875 C 1.476562 1.457031 1.28125 1.664062 1.03125 1.8125 C 0.789062 1.957031 0.53125 2.03125 0.25 2.03125 Z M 1.359375 -6.140625 C 1.160156 -6.140625 1.019531 -6.175781 0.9375 -6.25 C 0.851562 -6.320312 0.8125 -6.4375 0.8125 -6.59375 L 0.8125 -6.75 C 0.8125 -6.914062 0.859375 -7.03125 0.953125 -7.09375 C 1.046875 -7.164062 1.1875 -7.203125 1.375 -7.203125 C 1.5625 -7.203125 1.695312 -7.164062 1.78125 -7.09375 C 1.875 -7.019531 1.921875 -6.90625 1.921875 -6.75 L 1.921875 -6.59375 C 1.921875 -6.425781 1.875 -6.304688 1.78125 -6.234375 C 1.695312 -6.171875 1.554688 -6.140625 1.359375 -6.140625 Z M 1.359375 -6.140625 "/></g></g></g><g fill="#000000" fill-opacity="1"><g transform="translate(196.428525, 212.619406)"><g><path d="M 5.46875 -2.90625 C 5.46875 -2.78125 5.414062 -2.675781 5.3125 -2.59375 C 5.21875 -2.507812 5.109375 -2.46875 4.984375 -2.46875 L 1.34375 -2.46875 C 1.394531 -1.96875 1.585938 -1.5625 1.921875 -1.25 C 2.253906 -0.945312 2.660156 -0.796875 3.140625 -0.796875 C 3.472656 -0.796875 3.742188 -0.84375 3.953125 -0.9375 C 4.160156 -1.039062 4.34375 -1.164062 4.5 -1.3125 C 4.601562 -1.375 4.703125 -1.40625 4.796875 -1.40625 C 4.910156 -1.40625 5.003906 -1.363281 5.078125 -1.28125 C 5.160156 -1.207031 5.203125 -1.113281 5.203125 -1 C 5.203125 -0.851562 5.132812 -0.722656 5 -0.609375 C 4.800781 -0.410156 4.535156 -0.238281 4.203125 -0.09375 C 3.878906 0.0390625 3.546875 0.109375 3.203125 0.109375 C 2.640625 0.109375 2.144531 -0.00390625 1.71875 -0.234375 C 1.300781 -0.472656 0.976562 -0.800781 0.75 -1.21875 C 0.519531 -1.644531 0.40625 -2.125 0.40625 -2.65625 C 0.40625 -3.226562 0.519531 -3.734375 0.75 -4.171875 C 0.988281 -4.609375 1.300781 -4.941406 1.6875 -5.171875 C 2.082031 -5.410156 2.503906 -5.53125 2.953125 -5.53125 C 3.390625 -5.53125 3.800781 -5.414062 4.1875 -5.1875 C 4.570312 -4.957031 4.878906 -4.644531 5.109375 -4.25 C 5.347656 -3.851562 5.46875 -3.40625 5.46875 -2.90625 Z M 2.953125 -4.625 C 2.566406 -4.625 2.234375 -4.515625 1.953125 -4.296875 C 1.671875 -4.078125 1.484375 -3.742188 1.390625 -3.296875 L 4.4375 -3.296875 L 4.4375 -3.375 C 4.40625 -3.738281 4.238281 -4.035156 3.9375 -4.265625 C 3.644531 -4.503906 3.316406 -4.625 2.953125 -4.625 Z M 2.953125 -4.625 "/></g></g></g><g fill="#000000" fill-opacity="1"><g transform="translate(209.020178, 212.619406)"><g><path d="M 3.078125 -5.53125 C 3.617188 -5.53125 4.070312 -5.441406 4.4375 -5.265625 C 4.800781 -5.097656 4.984375 -4.878906 4.984375 -4.609375 C 4.984375 -4.492188 4.941406 -4.390625 4.859375 -4.296875 C 4.785156 -4.203125 4.691406 -4.15625 4.578125 -4.15625 C 4.484375 -4.15625 4.410156 -4.164062 4.359375 -4.1875 C 4.316406 -4.21875 4.25 -4.265625 4.15625 -4.328125 C 4.113281 -4.367188 4.046875 -4.414062 3.953125 -4.46875 C 3.878906 -4.507812 3.765625 -4.546875 3.609375 -4.578125 C 3.453125 -4.609375 3.316406 -4.625 3.203125 -4.625 C 2.835938 -4.625 2.515625 -4.539062 2.234375 -4.375 C 1.960938 -4.207031 1.75 -3.976562 1.59375 -3.6875 C 1.445312 -3.394531 1.375 -3.070312 1.375 -2.71875 C 1.375 -2.351562 1.445312 -2.023438 1.59375 -1.734375 C 1.75 -1.441406 1.957031 -1.210938 2.21875 -1.046875 C 2.488281 -0.878906 2.796875 -0.796875 3.140625 -0.796875 C 3.503906 -0.796875 3.796875 -0.851562 4.015625 -0.96875 C 4.054688 -1 4.117188 -1.046875 4.203125 -1.109375 C 4.273438 -1.160156 4.335938 -1.195312 4.390625 -1.21875 C 4.441406 -1.25 4.503906 -1.265625 4.578125 -1.265625 C 4.710938 -1.265625 4.816406 -1.222656 4.890625 -1.140625 C 4.972656 -1.054688 5.015625 -0.941406 5.015625 -0.796875 C 5.015625 -0.660156 4.921875 -0.519531 4.734375 -0.375 C 4.554688 -0.238281 4.316406 -0.125 4.015625 -0.03125 C 3.710938 0.0625 3.382812 0.109375 3.03125 0.109375 C 2.507812 0.109375 2.046875 -0.0078125 1.640625 -0.25 C 1.242188 -0.5 0.9375 -0.835938 0.71875 -1.265625 C 0.507812 -1.703125 0.40625 -2.1875 0.40625 -2.71875 C 0.40625 -3.238281 0.515625 -3.710938 0.734375 -4.140625 C 0.960938 -4.578125 1.28125 -4.914062 1.6875 -5.15625 C 2.09375 -5.40625 2.554688 -5.53125 3.078125 -5.53125 Z M 3.078125 -5.53125 "/></g></g></g><g fill="#000000" fill-opacity="1"><g transform="translate(221.034992, 212.619406)"><g><path d="M 2.203125 -4.4375 L 2.203125 -1.375 C 2.203125 -1.03125 2.351562 -0.859375 2.65625 -0.859375 C 2.707031 -0.859375 2.773438 -0.867188 2.859375 -0.890625 C 2.941406 -0.910156 3.003906 -0.921875 3.046875 -0.921875 C 3.140625 -0.921875 3.21875 -0.882812 3.28125 -0.8125 C 3.34375 -0.738281 3.375 -0.644531 3.375 -0.53125 C 3.375 -0.382812 3.289062 -0.257812 3.125 -0.15625 C 2.957031 -0.0507812 2.769531 0 2.5625 0 C 2.34375 0 2.132812 -0.0195312 1.9375 -0.0625 C 1.75 -0.113281 1.582031 -0.238281 1.4375 -0.4375 C 1.289062 -0.632812 1.21875 -0.929688 1.21875 -1.328125 L 1.21875 -4.4375 L 0.625 -4.4375 C 0.488281 -4.4375 0.378906 -4.476562 0.296875 -4.5625 C 0.210938 -4.65625 0.171875 -4.769531 0.171875 -4.90625 C 0.171875 -5.03125 0.210938 -5.132812 0.296875 -5.21875 C 0.378906 -5.300781 0.488281 -5.34375 0.625 -5.34375 L 1.21875 -5.34375 L 1.21875 -6.203125 C 1.21875 -6.347656 1.265625 -6.46875 1.359375 -6.5625 C 1.453125 -6.65625 1.570312 -6.703125 1.71875 -6.703125 C 1.851562 -6.703125 1.96875 -6.65625 2.0625 -6.5625 C 2.15625 -6.46875 2.203125 -6.347656 2.203125 -6.203125 L 2.203125 -5.34375 L 3.046875 -5.34375 C 3.179688 -5.34375 3.289062 -5.296875 3.375 -5.203125 C 3.457031 -5.117188 3.5 -5.015625 3.5 -4.890625 C 3.5 -4.753906 3.457031 -4.644531 3.375 -4.5625 C 3.289062 -4.476562 3.179688 -4.4375 3.046875 -4.4375 Z M 2.203125 -4.4375 "/></g></g></g></svg>