<svg xmlns="http://www.w3.org/2000/svg" xmlns:xlink="http://www.w3.org/1999/xlink" width="500" zoomAndPan="magnify" viewBox="0 0 375 374.999991" height="500" preserveAspectRatio="xMidYMid meet" version="1.0"><defs><g/></defs><g fill="#a6a6a6" fill-opacity="1"><g transform="translate(31.477521, 195.04961)"><g><path d="M 36.796875 -28.125 C 39.804688 -24.851562 41.3125 -20.835938 41.3125 -16.078125 C 41.3125 -11.328125 39.804688 -7.300781 36.796875 -4 C 33.796875 -0.707031 29.976562 0.9375 25.34375 0.9375 C 21.09375 0.9375 17.585938 -0.394531 14.828125 -3.0625 L 14.828125 16.28125 L 3.75 16.28125 L 3.75 -32.109375 L 14.703125 -32.109375 L 14.703125 -28.484375 L 14.828125 -28.484375 C 17.585938 -31.523438 21.09375 -33.046875 25.34375 -33.046875 C 29.976562 -33.046875 33.796875 -31.40625 36.796875 -28.125 Z M 27.375 -10.640625 C 28.820312 -12.054688 29.546875 -13.867188 29.546875 -16.078125 C 29.546875 -18.296875 28.851562 -20.101562 27.46875 -21.5 C 26.09375 -22.894531 24.28125 -23.59375 22.03125 -23.59375 C 19.863281 -23.59375 18.078125 -22.882812 16.671875 -21.46875 C 15.273438 -20.050781 14.578125 -18.257812 14.578125 -16.09375 C 14.578125 -13.875 15.296875 -12.054688 16.734375 -10.640625 C 18.179688 -9.222656 19.945312 -8.515625 22.03125 -8.515625 C 24.15625 -8.515625 25.9375 -9.222656 27.375 -10.640625 Z M 27.375 -10.640625 "/></g></g></g><g fill="#a6a6a6" fill-opacity="1"><g transform="translate(68.331217, 195.04961)"><g><path d="M 3.75 0 L 3.75 -32.109375 L 14.828125 -32.109375 L 14.828125 -27.484375 L 14.953125 -27.484375 C 15.035156 -27.648438 15.171875 -27.859375 15.359375 -28.109375 C 15.546875 -28.359375 15.953125 -28.796875 16.578125 -29.421875 C 17.210938 -30.046875 17.882812 -30.609375 18.59375 -31.109375 C 19.300781 -31.609375 20.21875 -32.054688 21.34375 -32.453125 C 22.46875 -32.847656 23.613281 -33.046875 24.78125 -33.046875 C 26 -33.046875 27.191406 -32.878906 28.359375 -32.546875 C 29.523438 -32.210938 30.378906 -31.878906 30.921875 -31.546875 L 31.796875 -31.046875 L 27.171875 -21.65625 C 25.785156 -22.820312 23.863281 -23.40625 21.40625 -23.40625 C 20.070312 -23.40625 18.925781 -23.113281 17.96875 -22.53125 C 17.007812 -21.945312 16.328125 -21.238281 15.921875 -20.40625 C 15.523438 -19.570312 15.242188 -18.863281 15.078125 -18.28125 C 14.910156 -17.695312 14.828125 -17.238281 14.828125 -16.90625 L 14.828125 0 Z M 3.75 0 "/></g></g></g><g fill="#a6a6a6" fill-opacity="1"><g transform="translate(93.608934, 195.04961)"><g><path d="M 6.78125 -3.8125 C 3.21875 -6.988281 1.4375 -11.054688 1.4375 -16.015625 C 1.4375 -20.984375 3.289062 -25.0625 7 -28.25 C 10.71875 -31.445312 15.3125 -33.046875 20.78125 -33.046875 C 26.164062 -33.046875 30.703125 -31.4375 34.390625 -28.21875 C 38.085938 -25.007812 39.9375 -20.941406 39.9375 -16.015625 C 39.9375 -11.097656 38.128906 -7.039062 34.515625 -3.84375 C 30.910156 -0.65625 26.332031 0.9375 20.78125 0.9375 C 15.019531 0.9375 10.351562 -0.644531 6.78125 -3.8125 Z M 15.359375 -21.46875 C 13.921875 -20.050781 13.203125 -18.234375 13.203125 -16.015625 C 13.203125 -13.804688 13.890625 -12.003906 15.265625 -10.609375 C 16.648438 -9.210938 18.46875 -8.515625 20.71875 -8.515625 C 22.882812 -8.515625 24.664062 -9.222656 26.0625 -10.640625 C 27.46875 -12.054688 28.171875 -13.851562 28.171875 -16.03125 C 28.171875 -18.238281 27.445312 -20.050781 26 -21.46875 C 24.5625 -22.882812 22.800781 -23.59375 20.71875 -23.59375 C 18.59375 -23.59375 16.804688 -22.882812 15.359375 -21.46875 Z M 15.359375 -21.46875 "/></g></g></g><g fill="#a6a6a6" fill-opacity="1"><g transform="translate(129.086025, 195.04961)"><g><path d="M 5.9375 -3.96875 C 2.9375 -7.25 1.4375 -11.265625 1.4375 -16.015625 C 1.4375 -20.773438 2.9375 -24.800781 5.9375 -28.09375 C 8.945312 -31.394531 12.769531 -33.046875 17.40625 -33.046875 C 21.65625 -33.046875 25.160156 -31.710938 27.921875 -29.046875 L 27.921875 -53.828125 L 39 -53.828125 L 39 0 L 28.046875 0 L 28.046875 -3.625 L 27.921875 -3.625 C 25.160156 -0.582031 21.65625 0.9375 17.40625 0.9375 C 12.769531 0.9375 8.945312 -0.695312 5.9375 -3.96875 Z M 15.359375 -21.46875 C 13.921875 -20.050781 13.203125 -18.234375 13.203125 -16.015625 C 13.203125 -13.804688 13.890625 -12.003906 15.265625 -10.609375 C 16.648438 -9.210938 18.46875 -8.515625 20.71875 -8.515625 C 22.882812 -8.515625 24.664062 -9.222656 26.0625 -10.640625 C 27.46875 -12.054688 28.171875 -13.851562 28.171875 -16.03125 C 28.171875 -18.238281 27.445312 -20.050781 26 -21.46875 C 24.5625 -22.882812 22.800781 -23.59375 20.71875 -23.59375 C 18.59375 -23.59375 16.804688 -22.882812 15.359375 -21.46875 Z M 15.359375 -21.46875 "/></g></g></g><g fill="#a6a6a6" fill-opacity="1"><g transform="translate(165.939721, 195.04961)"><g><path d="M 14.203125 -32.109375 L 14.203125 -16.84375 C 14.203125 -13.664062 14.679688 -11.410156 15.640625 -10.078125 C 16.609375 -8.742188 18.238281 -8.078125 20.53125 -8.078125 C 22.820312 -8.078125 24.445312 -8.742188 25.40625 -10.078125 C 26.375 -11.410156 26.859375 -13.664062 26.859375 -16.84375 L 26.859375 -32.109375 L 37.9375 -32.109375 L 37.9375 -14.140625 C 37.9375 -8.804688 36.546875 -4.957031 33.765625 -2.59375 C 30.992188 -0.238281 26.582031 0.9375 20.53125 0.9375 C 14.476562 0.9375 10.0625 -0.238281 7.28125 -2.59375 C 4.507812 -4.957031 3.125 -8.804688 3.125 -14.140625 L 3.125 -32.109375 Z M 14.203125 -32.109375 "/></g></g></g><g fill="#a6a6a6" fill-opacity="1"><g transform="translate(201.103959, 195.04961)"><g><path d="M 20.84375 -23.96875 C 18.757812 -23.96875 16.960938 -23.195312 15.453125 -21.65625 C 13.953125 -20.113281 13.203125 -18.257812 13.203125 -16.09375 C 13.203125 -13.875 13.953125 -11.992188 15.453125 -10.453125 C 16.960938 -8.910156 18.757812 -8.140625 20.84375 -8.140625 C 21.84375 -8.140625 22.789062 -8.265625 23.6875 -8.515625 C 24.582031 -8.765625 25.238281 -9.015625 25.65625 -9.265625 L 26.234375 -9.640625 L 29.984375 -1.9375 C 29.691406 -1.726562 29.285156 -1.46875 28.765625 -1.15625 C 28.242188 -0.84375 27.050781 -0.414062 25.1875 0.125 C 23.332031 0.664062 21.34375 0.9375 19.21875 0.9375 C 14.5 0.9375 10.351562 -0.71875 6.78125 -4.03125 C 3.21875 -7.351562 1.4375 -11.332031 1.4375 -15.96875 C 1.4375 -20.632812 3.21875 -24.644531 6.78125 -28 C 10.351562 -31.363281 14.5 -33.046875 19.21875 -33.046875 C 21.34375 -33.046875 23.300781 -32.796875 25.09375 -32.296875 C 26.894531 -31.796875 28.171875 -31.296875 28.921875 -30.796875 L 29.984375 -30.046875 L 26.234375 -22.46875 C 24.847656 -23.46875 23.050781 -23.96875 20.84375 -23.96875 Z M 20.84375 -23.96875 "/></g></g></g><g fill="#a6a6a6" fill-opacity="1"><g transform="translate(225.943674, 195.04961)"><g><path d="M 5.640625 -32.109375 L 5.640625 -44.0625 L 16.71875 -44.0625 L 16.71875 -32.109375 L 23.46875 -32.109375 L 23.46875 -23.65625 L 16.71875 -23.65625 L 16.71875 -13.453125 C 16.71875 -10.492188 17.550781 -9.015625 19.21875 -9.015625 C 19.632812 -9.015625 20.070312 -9.097656 20.53125 -9.265625 C 20.988281 -9.429688 21.34375 -9.597656 21.59375 -9.765625 L 21.96875 -10.015625 L 24.71875 -1.0625 C 22.34375 0.269531 19.632812 0.9375 16.59375 0.9375 C 14.5 0.9375 12.703125 0.570312 11.203125 -0.15625 C 9.703125 -0.882812 8.566406 -1.863281 7.796875 -3.09375 C 7.023438 -4.320312 6.472656 -5.613281 6.140625 -6.96875 C 5.804688 -8.332031 5.640625 -9.785156 5.640625 -11.328125 L 5.640625 -23.65625 L 1 -23.65625 L 1 -32.109375 Z M 5.640625 -32.109375 "/></g></g></g><g fill="#a6a6a6" fill-opacity="1"><g transform="translate(244.776373, 195.04961)"><g/></g></g><g fill="#a6a6a6" fill-opacity="1"><g transform="translate(255.975197, 195.04961)"><g><path d="M 5.640625 -32.109375 L 5.640625 -38.9375 C 5.679688 -43.726562 6.804688 -47.5625 9.015625 -50.4375 C 11.222656 -53.320312 14.289062 -54.765625 18.21875 -54.765625 C 19.882812 -54.765625 21.476562 -54.523438 23 -54.046875 C 24.519531 -53.566406 25.617188 -53.078125 26.296875 -52.578125 L 27.359375 -51.890625 L 23.46875 -44.0625 C 22.46875 -44.644531 21.363281 -44.9375 20.15625 -44.9375 C 18.78125 -44.9375 17.863281 -44.46875 17.40625 -43.53125 C 16.945312 -42.59375 16.71875 -40.957031 16.71875 -38.625 L 16.71875 -32.109375 L 24.09375 -32.109375 L 24.09375 -23.65625 L 16.71875 -23.65625 L 16.71875 0 L 5.640625 0 L 5.640625 -23.65625 L 1 -23.65625 L 1 -32.109375 Z M 5.640625 -32.109375 "/></g></g></g><g fill="#a6a6a6" fill-opacity="1"><g transform="translate(273.556455, 195.04961)"><g><path d="M 36.234375 -14.515625 L 12.953125 -14.515625 C 12.953125 -12.265625 13.679688 -10.597656 15.140625 -9.515625 C 16.609375 -8.429688 18.195312 -7.890625 19.90625 -7.890625 C 21.695312 -7.890625 23.113281 -8.128906 24.15625 -8.609375 C 25.195312 -9.085938 26.390625 -10.035156 27.734375 -11.453125 L 35.734375 -7.453125 C 32.398438 -1.859375 26.851562 0.9375 19.09375 0.9375 C 14.25 0.9375 10.09375 -0.71875 6.625 -4.03125 C 3.164062 -7.351562 1.4375 -11.347656 1.4375 -16.015625 C 1.4375 -20.691406 3.164062 -24.695312 6.625 -28.03125 C 10.09375 -31.375 14.25 -33.046875 19.09375 -33.046875 C 24.1875 -33.046875 28.328125 -31.570312 31.515625 -28.625 C 34.703125 -25.6875 36.296875 -21.488281 36.296875 -16.03125 C 36.296875 -15.269531 36.273438 -14.765625 36.234375 -14.515625 Z M 13.265625 -20.65625 L 25.46875 -20.65625 C 25.21875 -22.320312 24.5625 -23.601562 23.5 -24.5 C 22.4375 -25.394531 21.070312 -25.84375 19.40625 -25.84375 C 17.570312 -25.84375 16.109375 -25.363281 15.015625 -24.40625 C 13.929688 -23.445312 13.347656 -22.195312 13.265625 -20.65625 Z M 13.265625 -20.65625 "/></g></g></g><g fill="#a6a6a6" fill-opacity="1"><g transform="translate(305.404326, 195.04961)"><g><path d="M 36.234375 -14.515625 L 12.953125 -14.515625 C 12.953125 -12.265625 13.679688 -10.597656 15.140625 -9.515625 C 16.609375 -8.429688 18.195312 -7.890625 19.90625 -7.890625 C 21.695312 -7.890625 23.113281 -8.128906 24.15625 -8.609375 C 25.195312 -9.085938 26.390625 -10.035156 27.734375 -11.453125 L 35.734375 -7.453125 C 32.398438 -1.859375 26.851562 0.9375 19.09375 0.9375 C 14.25 0.9375 10.09375 -0.71875 6.625 -4.03125 C 3.164062 -7.351562 1.4375 -11.347656 1.4375 -16.015625 C 1.4375 -20.691406 3.164062 -24.695312 6.625 -28.03125 C 10.09375 -31.375 14.25 -33.046875 19.09375 -33.046875 C 24.1875 -33.046875 28.328125 -31.570312 31.515625 -28.625 C 34.703125 -25.6875 36.296875 -21.488281 36.296875 -16.03125 C 36.296875 -15.269531 36.273438 -14.765625 36.234375 -14.515625 Z M 13.265625 -20.65625 L 25.46875 -20.65625 C 25.21875 -22.320312 24.5625 -23.601562 23.5 -24.5 C 22.4375 -25.394531 21.070312 -25.84375 19.40625 -25.84375 C 17.570312 -25.84375 16.109375 -25.363281 15.015625 -24.40625 C 13.929688 -23.445312 13.347656 -22.195312 13.265625 -20.65625 Z M 13.265625 -20.65625 "/></g></g></g><g fill="#a6a6a6" fill-opacity="1"><g transform="translate(144.143595, 212.007902)"><g><path d="M 4.203125 -6.71875 C 4.773438 -6.71875 5.289062 -6.570312 5.75 -6.28125 C 6.21875 -5.988281 6.582031 -5.582031 6.84375 -5.0625 C 7.101562 -4.539062 7.234375 -3.953125 7.234375 -3.296875 C 7.234375 -2.640625 7.101562 -2.050781 6.84375 -1.53125 C 6.582031 -1.019531 6.21875 -0.617188 5.75 -0.328125 C 5.289062 -0.0351562 4.785156 0.109375 4.234375 0.109375 C 3.796875 0.109375 3.382812 0.015625 3 -0.171875 C 2.625 -0.367188 2.320312 -0.601562 2.09375 -0.875 L 2.09375 1.921875 C 2.09375 2.085938 2.035156 2.226562 1.921875 2.34375 C 1.804688 2.457031 1.660156 2.515625 1.484375 2.515625 C 1.316406 2.515625 1.175781 2.457031 1.0625 2.34375 C 0.945312 2.226562 0.890625 2.085938 0.890625 1.921875 L 0.890625 -6 C 0.890625 -6.175781 0.941406 -6.320312 1.046875 -6.4375 C 1.160156 -6.5625 1.304688 -6.625 1.484375 -6.625 C 1.660156 -6.625 1.804688 -6.5625 1.921875 -6.4375 C 2.035156 -6.320312 2.09375 -6.175781 2.09375 -6 L 2.09375 -5.640625 C 2.289062 -5.929688 2.582031 -6.179688 2.96875 -6.390625 C 3.351562 -6.609375 3.765625 -6.71875 4.203125 -6.71875 Z M 4.0625 -1 C 4.445312 -1 4.796875 -1.097656 5.109375 -1.296875 C 5.421875 -1.492188 5.660156 -1.765625 5.828125 -2.109375 C 6.003906 -2.460938 6.09375 -2.859375 6.09375 -3.296875 C 6.09375 -3.734375 6.003906 -4.125 5.828125 -4.46875 C 5.660156 -4.820312 5.421875 -5.097656 5.109375 -5.296875 C 4.796875 -5.503906 4.445312 -5.609375 4.0625 -5.609375 C 3.664062 -5.609375 3.3125 -5.507812 3 -5.3125 C 2.695312 -5.113281 2.457031 -4.835938 2.28125 -4.484375 C 2.113281 -4.128906 2.03125 -3.734375 2.03125 -3.296875 C 2.03125 -2.859375 2.113281 -2.460938 2.28125 -2.109375 C 2.457031 -1.765625 2.695312 -1.492188 3 -1.296875 C 3.3125 -1.097656 3.664062 -1 4.0625 -1 Z M 4.0625 -1 "/></g></g></g><g fill="#a6a6a6" fill-opacity="1"><g transform="translate(160.086335, 212.007902)"><g><path d="M 4.1875 -6.75 C 4.40625 -6.75 4.59375 -6.691406 4.75 -6.578125 C 4.90625 -6.460938 4.984375 -6.320312 4.984375 -6.15625 C 4.984375 -5.957031 4.929688 -5.804688 4.828125 -5.703125 C 4.722656 -5.597656 4.597656 -5.546875 4.453125 -5.546875 C 4.367188 -5.546875 4.253906 -5.566406 4.109375 -5.609375 C 3.929688 -5.671875 3.789062 -5.703125 3.6875 -5.703125 C 3.425781 -5.703125 3.171875 -5.609375 2.921875 -5.421875 C 2.679688 -5.242188 2.484375 -5 2.328125 -4.6875 C 2.171875 -4.375 2.09375 -4.023438 2.09375 -3.640625 L 2.09375 -0.609375 C 2.09375 -0.441406 2.035156 -0.296875 1.921875 -0.171875 C 1.804688 -0.0546875 1.660156 0 1.484375 0 C 1.304688 0 1.160156 -0.0546875 1.046875 -0.171875 C 0.941406 -0.285156 0.890625 -0.429688 0.890625 -0.609375 L 0.890625 -6 C 0.890625 -6.164062 0.945312 -6.304688 1.0625 -6.421875 C 1.175781 -6.535156 1.316406 -6.59375 1.484375 -6.59375 C 1.660156 -6.59375 1.804688 -6.535156 1.921875 -6.421875 C 2.035156 -6.304688 2.09375 -6.164062 2.09375 -6 L 2.09375 -5.359375 C 2.28125 -5.765625 2.554688 -6.09375 2.921875 -6.34375 C 3.285156 -6.601562 3.707031 -6.738281 4.1875 -6.75 Z M 4.1875 -6.75 "/></g></g></g><g fill="#a6a6a6" fill-opacity="1"><g transform="translate(173.498683, 212.007902)"><g><path d="M 7.140625 -3.296875 C 7.140625 -2.640625 6.992188 -2.050781 6.703125 -1.53125 C 6.410156 -1.007812 6.007812 -0.601562 5.5 -0.3125 C 4.988281 -0.0195312 4.425781 0.125 3.8125 0.125 C 3.195312 0.125 2.632812 -0.0195312 2.125 -0.3125 C 1.625 -0.601562 1.222656 -1.007812 0.921875 -1.53125 C 0.628906 -2.050781 0.484375 -2.640625 0.484375 -3.296875 C 0.484375 -3.953125 0.628906 -4.546875 0.921875 -5.078125 C 1.222656 -5.609375 1.625 -6.019531 2.125 -6.3125 C 2.632812 -6.601562 3.195312 -6.75 3.8125 -6.75 C 4.425781 -6.75 4.988281 -6.601562 5.5 -6.3125 C 6.007812 -6.019531 6.410156 -5.609375 6.703125 -5.078125 C 6.992188 -4.546875 7.140625 -3.953125 7.140625 -3.296875 Z M 5.9375 -3.296875 C 5.9375 -3.753906 5.84375 -4.160156 5.65625 -4.515625 C 5.46875 -4.867188 5.210938 -5.144531 4.890625 -5.34375 C 4.566406 -5.539062 4.207031 -5.640625 3.8125 -5.640625 C 3.414062 -5.640625 3.054688 -5.539062 2.734375 -5.34375 C 2.410156 -5.144531 2.15625 -4.867188 1.96875 -4.515625 C 1.78125 -4.160156 1.6875 -3.753906 1.6875 -3.296875 C 1.6875 -2.847656 1.78125 -2.445312 1.96875 -2.09375 C 2.15625 -1.75 2.410156 -1.476562 2.734375 -1.28125 C 3.054688 -1.082031 3.414062 -0.984375 3.8125 -0.984375 C 4.207031 -0.984375 4.566406 -1.082031 4.890625 -1.28125 C 5.210938 -1.476562 5.46875 -1.75 5.65625 -2.09375 C 5.84375 -2.445312 5.9375 -2.847656 5.9375 -3.296875 Z M 5.9375 -3.296875 "/></g></g></g><g fill="#a6a6a6" fill-opacity="1"><g transform="translate(189.340708, 212.007902)"><g><path d="M 0.296875 2.484375 C 0.140625 2.484375 0.0078125 2.425781 -0.09375 2.3125 C -0.195312 2.207031 -0.25 2.078125 -0.25 1.921875 L -0.25 1.8125 C -0.25 1.53125 -0.078125 1.347656 0.265625 1.265625 C 0.804688 1.117188 1.078125 0.703125 1.078125 0.015625 L 1.078125 -6 C 1.078125 -6.164062 1.128906 -6.304688 1.234375 -6.421875 C 1.347656 -6.535156 1.492188 -6.59375 1.671875 -6.59375 C 1.835938 -6.59375 1.976562 -6.535156 2.09375 -6.421875 C 2.207031 -6.304688 2.265625 -6.164062 2.265625 -6 L 2.265625 0.3125 C 2.265625 0.75 2.171875 1.128906 1.984375 1.453125 C 1.804688 1.785156 1.566406 2.039062 1.265625 2.21875 C 0.960938 2.394531 0.640625 2.484375 0.296875 2.484375 Z M 1.65625 -7.5 C 1.414062 -7.5 1.242188 -7.539062 1.140625 -7.625 C 1.035156 -7.707031 0.984375 -7.847656 0.984375 -8.046875 L 0.984375 -8.25 C 0.984375 -8.445312 1.035156 -8.585938 1.140625 -8.671875 C 1.253906 -8.753906 1.429688 -8.796875 1.671875 -8.796875 C 1.910156 -8.796875 2.082031 -8.75 2.1875 -8.65625 C 2.289062 -8.570312 2.34375 -8.4375 2.34375 -8.25 L 2.34375 -8.046875 C 2.34375 -7.847656 2.285156 -7.707031 2.171875 -7.625 C 2.066406 -7.539062 1.894531 -7.5 1.65625 -7.5 Z M 1.65625 -7.5 "/></g></g></g><g fill="#a6a6a6" fill-opacity="1"><g transform="translate(200.839516, 212.007902)"><g><path d="M 6.6875 -3.546875 C 6.675781 -3.398438 6.613281 -3.273438 6.5 -3.171875 C 6.382812 -3.066406 6.242188 -3.015625 6.078125 -3.015625 L 1.65625 -3.015625 C 1.707031 -2.398438 1.9375 -1.90625 2.34375 -1.53125 C 2.75 -1.164062 3.25 -0.984375 3.84375 -0.984375 C 4.25 -0.984375 4.578125 -1.039062 4.828125 -1.15625 C 5.078125 -1.269531 5.296875 -1.421875 5.484375 -1.609375 C 5.617188 -1.679688 5.742188 -1.71875 5.859375 -1.71875 C 5.992188 -1.71875 6.109375 -1.664062 6.203125 -1.5625 C 6.304688 -1.46875 6.359375 -1.351562 6.359375 -1.21875 C 6.359375 -1.039062 6.273438 -0.882812 6.109375 -0.75 C 5.867188 -0.5 5.546875 -0.289062 5.140625 -0.125 C 4.734375 0.0390625 4.320312 0.125 3.90625 0.125 C 3.226562 0.125 2.628906 -0.015625 2.109375 -0.296875 C 1.585938 -0.585938 1.1875 -0.988281 0.90625 -1.5 C 0.625 -2.007812 0.484375 -2.585938 0.484375 -3.234375 C 0.484375 -3.941406 0.628906 -4.5625 0.921875 -5.09375 C 1.210938 -5.625 1.59375 -6.03125 2.0625 -6.3125 C 2.539062 -6.601562 3.054688 -6.75 3.609375 -6.75 C 4.140625 -6.75 4.640625 -6.609375 5.109375 -6.328125 C 5.578125 -6.054688 5.953125 -5.675781 6.234375 -5.1875 C 6.523438 -4.695312 6.675781 -4.148438 6.6875 -3.546875 Z M 3.609375 -5.640625 C 3.128906 -5.640625 2.71875 -5.503906 2.375 -5.234375 C 2.03125 -4.972656 1.804688 -4.566406 1.703125 -4.015625 L 5.421875 -4.015625 L 5.421875 -4.125 C 5.378906 -4.5625 5.175781 -4.921875 4.8125 -5.203125 C 4.457031 -5.492188 4.054688 -5.640625 3.609375 -5.640625 Z M 3.609375 -5.640625 "/></g></g></g><g fill="#a6a6a6" fill-opacity="1"><g transform="translate(216.228328, 212.007902)"><g><path d="M 3.765625 -6.75 C 4.429688 -6.75 4.984375 -6.644531 5.421875 -6.4375 C 5.859375 -6.226562 6.078125 -5.957031 6.078125 -5.625 C 6.078125 -5.488281 6.03125 -5.363281 5.9375 -5.25 C 5.851562 -5.132812 5.738281 -5.078125 5.59375 -5.078125 C 5.476562 -5.078125 5.390625 -5.09375 5.328125 -5.125 C 5.265625 -5.15625 5.179688 -5.210938 5.078125 -5.296875 C 5.023438 -5.335938 4.945312 -5.394531 4.84375 -5.46875 C 4.738281 -5.519531 4.59375 -5.5625 4.40625 -5.59375 C 4.21875 -5.625 4.050781 -5.640625 3.90625 -5.640625 C 3.46875 -5.640625 3.078125 -5.535156 2.734375 -5.328125 C 2.398438 -5.128906 2.140625 -4.851562 1.953125 -4.5 C 1.773438 -4.144531 1.6875 -3.75 1.6875 -3.3125 C 1.6875 -2.863281 1.773438 -2.460938 1.953125 -2.109375 C 2.140625 -1.765625 2.394531 -1.488281 2.71875 -1.28125 C 3.050781 -1.082031 3.425781 -0.984375 3.84375 -0.984375 C 4.28125 -0.984375 4.632812 -1.050781 4.90625 -1.1875 C 4.957031 -1.21875 5.035156 -1.269531 5.140625 -1.34375 C 5.222656 -1.414062 5.296875 -1.46875 5.359375 -1.5 C 5.421875 -1.53125 5.5 -1.546875 5.59375 -1.546875 C 5.757812 -1.546875 5.890625 -1.492188 5.984375 -1.390625 C 6.085938 -1.285156 6.140625 -1.148438 6.140625 -0.984375 C 6.140625 -0.804688 6.023438 -0.628906 5.796875 -0.453125 C 5.578125 -0.285156 5.28125 -0.144531 4.90625 -0.03125 C 4.53125 0.0703125 4.128906 0.125 3.703125 0.125 C 3.066406 0.125 2.503906 -0.0195312 2.015625 -0.3125 C 1.523438 -0.613281 1.144531 -1.023438 0.875 -1.546875 C 0.613281 -2.078125 0.484375 -2.664062 0.484375 -3.3125 C 0.484375 -3.957031 0.625 -4.539062 0.90625 -5.0625 C 1.1875 -5.59375 1.570312 -6.003906 2.0625 -6.296875 C 2.5625 -6.597656 3.128906 -6.75 3.765625 -6.75 Z M 3.765625 -6.75 "/></g></g></g><g fill="#a6a6a6" fill-opacity="1"><g transform="translate(230.912159, 212.007902)"><g><path d="M 2.6875 -5.421875 L 2.6875 -1.671875 C 2.6875 -1.253906 2.875 -1.046875 3.25 -1.046875 C 3.3125 -1.046875 3.390625 -1.0625 3.484375 -1.09375 C 3.585938 -1.125 3.671875 -1.140625 3.734375 -1.140625 C 3.835938 -1.140625 3.925781 -1.09375 4 -1 C 4.082031 -0.90625 4.125 -0.785156 4.125 -0.640625 C 4.125 -0.460938 4.019531 -0.3125 3.8125 -0.1875 C 3.613281 -0.0625 3.390625 0 3.140625 0 C 2.859375 0 2.601562 -0.0234375 2.375 -0.078125 C 2.144531 -0.140625 1.9375 -0.289062 1.75 -0.53125 C 1.570312 -0.769531 1.484375 -1.132812 1.484375 -1.625 L 1.484375 -5.421875 L 0.75 -5.421875 C 0.59375 -5.421875 0.460938 -5.472656 0.359375 -5.578125 C 0.253906 -5.691406 0.203125 -5.828125 0.203125 -5.984375 C 0.203125 -6.140625 0.253906 -6.269531 0.359375 -6.375 C 0.460938 -6.476562 0.59375 -6.53125 0.75 -6.53125 L 1.484375 -6.53125 L 1.484375 -7.578125 C 1.484375 -7.742188 1.539062 -7.882812 1.65625 -8 C 1.769531 -8.125 1.914062 -8.1875 2.09375 -8.1875 C 2.257812 -8.1875 2.398438 -8.125 2.515625 -8 C 2.628906 -7.882812 2.6875 -7.742188 2.6875 -7.578125 L 2.6875 -6.53125 L 3.734375 -6.53125 C 3.890625 -6.53125 4.019531 -6.472656 4.125 -6.359375 C 4.226562 -6.253906 4.28125 -6.125 4.28125 -5.96875 C 4.28125 -5.8125 4.226562 -5.679688 4.125 -5.578125 C 4.019531 -5.472656 3.890625 -5.421875 3.734375 -5.421875 Z M 2.6875 -5.421875 "/></g></g></g></svg>